<?xml version="1.0" encoding="UTF-8"?>
<svg id="Layer_1" xmlns="http://www.w3.org/2000/svg" version="1.1" viewBox="0 0 1224 408.1">
  <!-- Generator: Adobe Illustrator 29.2.1, SVG Export Plug-In . SVG Version: 2.1.0 Build 116)  -->
  <defs>
    <style>
      .st0 {
        fill: #05d384;
      }

      .st1 {
        fill: #40ceff;
      }

      .st2 {
        fill: #01003d;
      }

      .st3 {
        fill: #3effc3;
      }

      .st4 {
        fill: #00a4ff;
      }
    </style>
  </defs>
  <path class="st2" d="M1051.8,281.5c-.1.7-3.8,7.1-4.6,8-10.8,13-34.2,5.4-35.2-11.7,2.5-46.7-4.3-98.7-.3-144.9,1.6-18.7,17.9-26.8,33.2-16l88,104.6v-47.4c0-1.7,4.2-7.6,5.8-9.1,11.6-10.4,29-4.2,33,10.3v105c-3.8,17.7-26,21.1-36.6,7l-83.5-100v94.3Z"/>
  <path class="st2" d="M494.6,112.1c10.2-1,39.6-1.8,48.2,1.4,19.1,7,15.2,36.4-6.2,38.3-11.9,1.1-37.4-3.1-46.3,2.9-11.7,7.8-8.4,26.9,5.1,29,25.8,4,55.5-6.7,80.2,7.9,46.5,27.4,30.7,100-23,104.2-29.8,2.4-62.6-1.8-92.7,0-22-2.5-24.9-37.6,5.7-40,27.6-2.2,57.9,1.8,85.7,0,18.1-6.7,15.1-30.1-4.5-32-27.9-2.6-58.3,7.4-82.4-11.4-40.2-31.3-21.2-95.4,30-100.2Z"/>
  <path class="st2" d="M296,260.5c-6.3,10.7-11.2,32.6-25,35s-27.7-9.9-23.8-26l74-147.8c8.2-12.9,25.9-13.1,34.3-.4l72.8,145.5c9.2,18.9-12.6,37.8-30,25.4-7.1-5.1-15.1-30.4-18.7-31.6h-83.7ZM359.9,220.4l-20.6-43.4-22.9,43.4h43.5Z"/>
  <path class="st2" d="M669.8,183.8h81.2v-57.7c0-1.8,4.8-8.2,6.5-9.5,10.9-9,27.2-4.3,31.9,8.9l.6,105.8c-4.8,26.6-43.8,19.7-38.9-7.5h-81.2v57.7c0,1.1-3.5,6.8-4.6,8-10.7,12.2-32.8,6.5-34.4-10.2l.3-154.1c4.4-11.5,18.8-17.1,29.5-10.5s9.2,9.4,9.2,11.4v57.7Z"/>
  <path class="st2" d="M209.6,167.4c-3.7,3.7-10.4,5.9-15.6,5.6-10.2-.6-13.8-8.2-21.3-13-45.3-28.9-99.5,21.7-74.5,68.7,13.8,25.8,47.3,35.3,72.6,20.4,5.3-3.1,7.7-7,11.9-9.8,22.2-15.2,45.2,12.6,24,33.1-54.9,53-150.2,13.6-154.4-62.9-4.4-79.5,89.5-128.4,150.3-77.1,10.5,8.9,18.9,23.2,7.1,35Z"/>
  <path class="st3" d="M1149.9,112.1c26.9-2.9,29.9,36.7,5.3,39.6-27,3.2-30.6-36.9-5.3-39.6Z"/>
  <path class="st0" d="M599.7,143.4c-3.5,5.6-9.9,9.3-19.4,8.1-22.3-2.7-22.4-36.2,0-39.5s27.2,18.9,19.4,31.4"/>
  <path class="st4" d="M861.7,184c24.7-1.9,29.5,37.5,3.1,39.8-26.7,2.3-29.4-37.7-3.1-39.8Z"/>
  <path class="st4" d="M215.5,184.1c25.7-1.3,28.5,37.6,3.1,39.7-27.2,2.3-28.9-38.4-3.1-39.7Z"/>
  <path class="st1" d="M764.4,257.2c31-6.3,33.9,36.2,8.9,38.6-27.7,2.6-28.5-34.6-8.9-38.6Z"/>
  <rect class="st2" x="942.1" y="110.6" width="38.6" height="187" rx="16.9" ry="16.9"/>
</svg>